<svg xmlns="http://www.w3.org/2000/svg" xmlns:xlink="http://www.w3.org/1999/xlink" version="1.1" id="Layer_1" x="0px" y="0px" style="enable-background:new 0 0 306.8 306.4;" xml:space="preserve" viewBox="91.6 91.4 123.5 123.6">
<g>
	<path d="M153.4,91.4c-35.5,0.4-62,29-61.8,62.1c0.2,34.2,27.9,61.7,61.9,61.5c34.2-0.2,61.6-27.7,61.6-61.8   C215.2,120.1,188.6,91.7,153.4,91.4z M103.7,178.2c-4.6-9.3-6.5-19.1-5.7-29.4c1.2-14.3,7.2-26.3,17.5-36.2   c0.2-0.2,0.4-0.3,0.8-0.7c-2.5,8.4-3.4,16.7-2.9,25.1c0.5,9.8,3,19.2,7.3,28c0.9,1.8,2.6,2.4,4.2,1.6c1.7-0.8,2.2-2.5,1.3-4.4   c-3.3-6.8-5.4-13.9-6.3-21.4c-1.4-12,0.3-23.6,5-34.8c0.2-0.5,0.5-0.9,1-1.2c6.9-3.9,14.3-6.2,22.2-7c0.1,0,0.3,0,0.5,0.1   c-1.3,3.9-2.4,7.7-3.1,11.7c-2.7,14.2-1.4,28,3.7,41.5c0.5,1.3,0.4,2.1-0.5,3.2c-11.4,13.6-25.8,21.9-43.3,24.8   C104.4,179.3,104.1,179,103.7,178.2z M199.9,183.8c-9,13.2-21.2,21.3-36.9,24.2c-9,1.6-17.9,0.9-26.8-1.9c2-0.6,3.7-1,5.4-1.6   c16-5.3,28.7-14.8,38.3-28.7c1-1.5,1.1-2.8,0.1-4c-1.3-1.7-3.7-1.6-5,0.3c-1.8,2.5-3.6,5-5.7,7.3c-11.4,12.6-25.5,19.9-42.4,22   c-0.7,0.1-1.2,0-1.8-0.3c-6.8-4-12.4-9.3-17-15.7c-0.1-0.1-0.1-0.2-0.1-0.4c16-3,29.7-10.2,41.1-21.8c1.7-1.7,3.2-3.5,4.7-5.3   c0.8-1,1.6-1.3,2.8-1.1c13.4,2.3,25.3,7.9,35.5,17c2.8,2.5,5.3,5.2,7.7,8C200.3,182.5,200.5,183,199.9,183.8z M203.7,176.8   c-3.3-3.9-6.9-7.4-10.8-10.5c-10.7-8.4-22.7-13.7-36.1-15.7c-0.9-0.1-1.3-0.5-1.6-1.3c-6.3-16.8-6.3-33.5-0.2-50.3   c0.3-0.8,0.5-1.4,1.7-1.3c11.9,0.8,22.5,4.8,31.8,12.4c9.7,7.9,16.1,18,19.1,30.2c0.1,0.3,0.1,0.6,0.1,0.9c0,0.1-0.1,0.2-0.1,0.4   c-2.5-2.4-4.9-4.8-7.6-6.9c-11.7-9.1-25-14.2-39.8-15.5c-2.4-0.2-4,1-4,3c0,1.6,1.1,2.9,2.8,3.1c4.4,0.4,8.8,1,13.1,2.2   c14.9,4.1,27,12.4,36.4,24.7c0.4,0.5,0.7,1,0.7,1.7c-0.1,7.9-1.8,15.4-5,22.5C203.9,176.5,203.8,176.6,203.7,176.8z"/>
</g>
</svg>