<svg xmlns="http://www.w3.org/2000/svg" xmlns:xlink="http://www.w3.org/1999/xlink" version="1.1" id="Layer_1" x="0px" y="0px" style="enable-background:new 0 0 306.8 306.4;" xml:space="preserve" viewBox="110.89 104.52 87.03 99.58">
<g>
	<path d="M142.8,204.1c-14.6-0.1-24.9-6.9-29.6-18c-4.6-10.8-2.2-23.6,6-32c14.2-14.4,28.5-28.8,42.8-43.1   c6.6-6.6,15.5-8.2,23.5-4.6c7.8,3.5,12.8,11.6,12.4,20.2c-0.3,5.6-2.7,10.2-6.6,14.2c-10.5,10.4-20.9,20.9-31.3,31.3   c-2.2,2.2-4.4,4.4-6.6,6.6c-4.8,4.7-11.8,4.7-16.8,0c-4.8-4.5-5.3-11.8-0.7-16.5c7.9-8.2,16-16.1,24-24.1c1.6-1.6,3.6-1.5,5-0.1   c1.4,1.4,1.3,3.5-0.4,5.2c-7.6,7.6-15.2,15.2-22.8,22.9c-2.7,2.7-2.7,5.8-0.1,7.9c2.2,1.8,4.8,1.8,6.8-0.2   c12.9-12.8,25.7-25.6,38.5-38.5c5.6-5.7,5.3-14.1-0.4-19.6c-5.6-5.5-13.9-5.5-19.6,0.2c-14.4,14.4-28.7,28.8-42.9,43.3   c-8.3,8.4-8.4,22.4-0.4,30.9c8.2,8.8,22,9.7,31.1,1.9c3.7-3.2,7-6.9,10.5-10.3c1.3-1.2,2.7-1.7,4.3-0.8c1.3,0.7,2,1.9,1.7,3.4   c-0.1,0.6-0.2,1.2-0.6,1.6c-5,4.8-9.2,10.4-15.2,14.1C151,202.8,145.8,204.1,142.8,204.1z"/>
	<path d="M177.8,177.9c-1.3-0.2-2.4-0.7-3-1.9c-0.6-1.4-0.6-2.8,0.4-3.8c3.2-3.3,6.5-6.6,9.8-9.8c1.4-1.3,3.4-1.1,4.7,0.3   c1.2,1.3,1.4,3.3,0,4.7c-3.1,3.3-6.4,6.5-9.6,9.6C179.5,177.6,178.6,177.8,177.8,177.9z"/>
</g>
</svg>