<svg xmlns="http://www.w3.org/2000/svg" xmlns:xlink="http://www.w3.org/1999/xlink" version="1.1" id="Layer_1" x="0px" y="0px" style="enable-background:new 0 0 306.78 306.35;" xml:space="preserve" viewBox="111.88 101.23 83.01 103.85">
<g>
	<path d="M194.64,186.47c-0.2-0.5-0.46-0.98-0.68-1.47c-3.31-7.04-5.27-14.44-5.81-22.21c-0.38-5.44-0.12-10.88-0.18-16.33   c-0.03-3.11-0.29-6.21-1.2-9.18c-4.45-14.48-14.19-22.95-29.14-25.38c-0.72-0.12-0.85-0.35-0.84-0.99   c0.03-2.02,0.03-4.04,0.01-6.06c-0.02-2.09-1.52-3.63-3.48-3.62c-1.97,0.01-3.42,1.55-3.44,3.66c-0.01,1.98-0.03,3.97,0.01,5.95   c0.01,0.68-0.1,0.97-0.89,1.06c-3.3,0.38-6.53,1.18-9.53,2.62c-13.44,6.46-20.39,17.16-20.74,32.08   c-0.09,3.71-0.03,7.43-0.01,11.14c0.04,9.81-1.98,19.17-6.34,27.95c-1.46,2.93,0.48,5.66,3.5,5.59c6.52-0.16,13.05-0.05,19.58-0.05   c0.47,0,0.87-0.12,1.09,0.63c2.16,7.54,7.12,12.04,14.92,13.07c5.42,0.71,10.15-1.09,14.09-4.88c1.06-1.02,1.31-2.3,0.83-3.68   c-0.48-1.35-1.5-2.09-2.9-2.26c-1.15-0.14-2.09,0.33-2.93,1.1c-1.97,1.79-4.28,2.73-6.95,2.8c-4.54,0.11-8.7-2.68-9.95-6.78h1.28   c14.17,0,28.34,0,42.51,0c1.37,0,2.74,0.04,4.11-0.01C193.99,191.15,195.54,188.75,194.64,186.47z M120.67,184.31   c0.79-2.23,1.59-4.4,2.23-6.63c1.82-6.31,2.73-12.74,2.74-19.3c0.01-3.97,0-7.93,0-11.9c0.02-14.01,9.89-25.52,23.7-27.66   c14.64-2.27,28.96,8.13,31.28,22.71c0.28,1.75,0.4,3.5,0.42,5.27c0.06,5.41-0.18,10.82,0.16,16.22c0.44,6.99,1.97,13.73,4.44,20.28   c0.11,0.3,0.23,0.59,0.39,1.01H120.67z"/>
</g>
</svg>