<svg xmlns="http://www.w3.org/2000/svg" xmlns:xlink="http://www.w3.org/1999/xlink" version="1.1" id="Layer_1" x="0px" y="0px" style="enable-background:new 0 0 306.8 306.4;" xml:space="preserve" viewBox="110.4 114.9 86.2 76.5">
<g>
	<g>
		<path d="M196.6,136.2c0-0.8,0-1.7-0.2-2.5c-1-4.7-4.8-7.8-9.7-7.8c-4.1,0-8.2,0-12.4,0c-0.7,0-1-0.2-1.2-0.8c-0.8-2-1.7-4-2.5-6    c-1.2-2.8-3.4-4.2-6.4-4.2c-7.1,0-14.3,0-21.4,0c-3.1,0-5.3,1.4-6.5,4.3c-0.8,2-1.7,3.9-2.5,5.9c-0.2,0.6-0.5,0.8-1.2,0.8    c-4,0-8.1,0-12.1,0c-0.9,0-1.7,0.1-2.5,0.2c-3.8,0.8-7.7,4.2-7.6,10.1c0.1,15,0,30,0,44.9c0,0.9,0,1.8,0.2,2.6    c1,4.6,4.9,7.7,9.6,7.7c11.1,0,22.2,0,33.2,0c11,0,22.1,0,33.1,0c1.2,0,2.3-0.1,3.4-0.5c4.2-1.4,6.7-5,6.7-9.9    C196.6,166.2,196.6,151.2,196.6,136.2z M190.5,181.3c0,2.8-1.4,4.2-4.2,4.2c-11,0-22,0-33,0c-11,0-22,0-33,0    c-2.7,0-4.1-1.4-4.1-4.1c0-15.1,0-30.2,0-45.3c0-2.7,1.4-4.1,4.1-4.1c4.8,0,9.6,0,14.4,0c1.8,0,2.9-0.7,3.5-2.4    c1.1-2.6,2.2-5.1,3.3-7.7c0.3-0.7,0.6-0.9,1.4-0.9c7,0,13.9,0,20.9,0c0.7,0,1,0.2,1.3,0.8c1.1,2.7,2.3,5.3,3.4,8    c0.6,1.5,1.7,2.2,3.3,2.2c4.8,0,9.6,0,14.4,0c2.8,0,4.2,1.4,4.2,4.2C190.5,151.2,190.5,166.2,190.5,181.3z"/>
		<path d="M153.5,137.1c-11.9,0-21.6,9.6-21.7,21.5c0,11.9,9.6,21.6,21.5,21.6c11.9,0,21.6-9.6,21.6-21.6    C175,146.8,165.4,137.2,153.5,137.1z M153.4,174.2c-8.6,0-15.5-7-15.5-15.6c0-8.6,7-15.5,15.6-15.5c8.6,0,15.5,7,15.5,15.6    C168.9,167.3,162,174.3,153.4,174.2z"/>
		<path d="M182.5,137.2c-1.4-0.1-2.9-0.1-4.3,0c-1.6,0.1-2.8,1.5-2.8,3.1c0.1,1.6,1.3,2.8,2.9,2.9c0.7,0,1.3,0,2,0    c0.7,0,1.4,0,2.1,0c1.6-0.1,2.8-1.3,2.9-2.9C185.3,138.7,184.1,137.3,182.5,137.2z"/>
	</g>
</g>
</svg>