<svg xmlns="http://www.w3.org/2000/svg" xmlns:xlink="http://www.w3.org/1999/xlink" width="21.514" height="21.514" viewBox="0 0 21.514 21.514"><defs><clipPath id="a"><rect width="21.514" height="21.514" transform="translate(0 0)" /></clipPath></defs><g transform="translate(0 0)"><g><path d="M10.761,0h0A10.757,10.757,0,1,0,21.514,10.757,10.769,10.769,0,0,0,10.757,0m0,20.014a9.257,9.257,0,0,1,0-18.514V.75l0,.75a9.257,9.257,0,0,1,0,18.514" /><path d="M12.207,10.741l2.368-2.369a1.019,1.019,0,0,0-.7-1.693.99.99,0,0,0-.75.263L10.77,9.3,8.406,6.937A1.019,1.019,0,0,0,6.971,8.383l2.358,2.355L6.978,13.089l-.046.048a1.017,1.017,0,0,0,.744,1.715,1,1,0,0,0,.735-.315l2.359-2.359L13.2,14.612h.009a1.015,1.015,0,0,0,1.352-.076,1.027,1.027,0,0,0,0-1.436Z" /></g></g></svg>