<svg xmlns="http://www.w3.org/2000/svg" xmlns:xlink="http://www.w3.org/1999/xlink" version="1.1" id="Layer_1" x="0px" y="0px" style="enable-background:new 0 0 306.8 306.4;" xml:space="preserve" viewBox="106.9 107.26 93.72 93.14">
<g>
	<path d="M199,125.1c-5.4-5.5-10.8-10.9-16.3-16.2c-2.3-2.2-4.4-2.2-6.7,0.1c-2.4,2.3-4.7,4.7-7.1,7.1c-3,3-3,4.9-0.1,7.8   c3.7,3.7,7.3,7.4,11,11c1.6,1.5,1.9,2.3,0.1,4c-17.1,17-34.2,34.1-51.2,51.2c-1.4,1.4-2.7,2-4.6,1.8c-2.7-0.2-6.4,1.1-7.8-0.5   c-1.4-1.6-0.3-5.2-0.5-7.9c-0.1-1.8,0.5-3.1,1.8-4.3c14.1-14,28-28,42.1-42c0.7-0.7,1.4-1.3,1.9-2.1c1-1.5,0.9-3.2-0.1-4.7   c-1-1.6-2.6-2-4.4-1.8c-1.3,0.2-2.1,1.3-2.9,2.1c-13.2,13.2-26.2,26.6-39.7,39.5c-5.2,5-9,9.8-7.1,17.4c0,1.2,0,2.5,0,3.7   c0,1.3,0,2.6,0,4c0.1,3.5,1.7,5.1,5.2,5.1c5,0,10,0,15.1,0c1.8,0,3.2-0.6,4.5-1.8c1.6-1.6,3.2-3.2,4.8-4.9   c20.4-20.4,40.8-40.8,61.3-61.3C201.1,129.6,201.4,127.5,199,125.1z M188.3,130.4c-0.8,0.5-1.1-0.2-1.5-0.6   c-2.9-2.9-5.8-5.9-8.8-8.7c-1-0.9-0.8-1.5,0.1-2.3c0.9-0.9,1.4-1.3,2.5-0.2c2.8,2.9,5.7,5.7,8.6,8.6c0.4,0.4,0.7,0.8,1.4,1.6   C189.8,129.4,189.1,129.9,188.3,130.4z"/>
	<path d="M178.7,191.9c-10.7,0-21.5,0-32.2,0c-3.2,0-5,1.6-5,4.2c0,2.7,1.9,4.3,5.2,4.3c5.3,0,10.5,0,15.8,0c5.4,0,10.7,0,16.1,0   c3.2,0,5-1.6,5-4.2C183.5,193.5,181.7,191.9,178.7,191.9z"/>
</g>
</svg>