<svg xmlns="http://www.w3.org/2000/svg" xmlns:xlink="http://www.w3.org/1999/xlink" version="1.1" id="Layer_1" x="0px" y="0px" style="enable-background:new 0 0 306.8 306.4;" xml:space="preserve" viewBox="101 101 105 105">
<g>
	<path d="M153.5,101c-29,0-52.5,23.5-52.5,52.5c0,28.9,23.5,52.5,52.4,52.5c29,0,52.6-23.6,52.6-52.5   C205.9,124.5,182.4,101,153.5,101z M153.4,198.5c-24.8-0.1-44.9-20.2-44.9-45c0-24.9,20.3-45,45.1-45c24.8,0.1,44.9,20.3,44.9,45   C198.5,178.4,178.2,198.6,153.4,198.5z"/>
	<path d="M127.3,146c-4.1,0-7.5,3.3-7.6,7.5c0,4.1,3.4,7.5,7.5,7.5c4.1,0,7.5-3.4,7.5-7.5C134.7,149.4,131.4,146,127.3,146z"/>
	<path d="M153.6,146c-4.2,0-7.6,3.3-7.6,7.4c0,4.1,3.3,7.5,7.3,7.6c4.2,0.1,7.6-3.2,7.7-7.4C161.1,149.5,157.7,146,153.6,146z"/>
	<path d="M179.8,146c-4.1,0-7.5,3.4-7.5,7.5c0,4.1,3.3,7.5,7.4,7.5c4.1,0,7.6-3.3,7.6-7.5C187.3,149.4,183.9,146,179.8,146z"/>
</g>
</svg>