<svg xmlns="http://www.w3.org/2000/svg" xmlns:xlink="http://www.w3.org/1999/xlink" version="1.1" id="Layer_1" x="0px" y="0px" style="enable-background:new 0 0 306.8 306.4;" xml:space="preserve" viewBox="92.03 95.9 123.17 107.3">
<g>
	<path d="M104.1,170.5c0-6.8,0-13.6,0-20.4c0-2.7,1.6-4.6,4.1-4.6c2.5,0,4.2,1.9,4.2,4.7c0,13.3,0,26.6,0,39.9   c0,3.3,1.5,4.8,4.9,4.8c4.8,0,9.7,0,14.5,0c1,0,1.2-0.3,1.2-1.2c0-9,0-18,0-27c0-3.2,1.6-4.7,4.7-4.7c10.6,0,21.2,0,31.8,0   c3,0,4.7,1.6,4.7,4.7c0,9,0,18,0,27c0,1,0.2,1.3,1.2,1.3c4.9-0.1,9.8,0,14.7,0c3.1,0,4.7-1.6,4.7-4.7c0-13.4,0-26.8,0-40.2   c0-3.2,2.8-5.3,5.6-4.2c1.6,0.6,2.6,2.1,2.6,4c0,4,0,8.1,0,12.1c0,9.4,0,18.8,0,28.2c0,7.8-5.3,13-13.1,13c-6.4,0-12.9,0-19.3,0   c-3.1,0-4.7-1.6-4.7-4.7c0-9,0-18,0-27c0-0.9-0.1-1.3-1.2-1.3c-7.4,0.1-14.7,0.1-22.1,0c-1.1,0-1.4,0.2-1.4,1.4   c0.1,9,0,17.9,0,26.9c0,3.1-1.6,4.7-4.8,4.7c-6.5,0-12.9,0-19.4,0c-7.5,0-12.8-5.3-12.9-12.9C104.1,183.6,104.1,177,104.1,170.5z"/>
	<path d="M215.2,141.3c-0.1,1.5-0.7,2.8-2.1,3.5c-1.4,0.8-2.9,0.8-4.2-0.2c-2.8-1.9-5.5-3.9-8.3-5.9c-15.4-11-30.7-21.9-46.1-32.9   c-0.8-0.6-1.3-0.5-2.1,0c-17.8,12.8-35.7,25.5-53.5,38.2c-2.8,2-6.2,0.9-6.8-2.3c-0.3-1.8,0.4-3.2,1.8-4.2c7-5,14-10,21-15   c11.8-8.5,23.7-16.9,35.5-25.4c2.3-1.6,3.7-1.6,6,0c18.8,13.5,37.7,26.9,56.5,40.4C214.2,138.5,215.1,139.6,215.2,141.3z"/>
</g>
</svg>