<svg xmlns="http://www.w3.org/2000/svg" xmlns:xlink="http://www.w3.org/1999/xlink" version="1.1" id="Layer_1" x="0px" y="0px" style="enable-background:new 0 0 306.8 306.4;" xml:space="preserve" viewBox="106.2 101.67 94.39 103.1">
<g>
	<path d="M106.2,157.4c-0.1-18.4,11.2-35.8,28.1-43.1c2.3-1,4.8-0.2,5.8,2c1,2.2,0.2,4.7-2.2,5.7c-5.5,2.5-10.2,5.9-14.1,10.5   c-6.8,8.2-9.9,17.7-9,28.4c1.5,17.6,14.7,31.8,32,34.8c20.9,3.6,41.1-10.7,44.6-31.5c2.9-17.5-6-34.4-22.1-41.8   c-2.4-1.1-3.5-3-3-5.1c0.6-2.7,3.4-4.1,6-3c4.5,1.9,8.5,4.5,12.2,7.7c8.2,7.3,13.5,16.3,15.3,27c2.8,16.6-1.9,30.9-13.9,42.7   c-7.7,7.5-17,11.6-27.7,12.8c-18.7,2.1-37.6-8-46.4-24.6C108,172.6,106.3,165.6,106.2,157.4z"/>
	<path d="M157.7,123.1c0,5.7,0,11.5,0,17.2c0,1.9-0.9,3.2-2.6,3.9c-1.6,0.7-3.2,0.4-4.5-0.7c-1.1-0.9-1.4-2.1-1.4-3.5   c0-7.3,0-14.6,0-21.9c0-4.1,0-8.2,0-12.3c0-1.8,1.2-3.4,2.9-3.9c1.8-0.6,3.6,0,4.8,1.5c0.7,0.9,0.9,1.9,0.9,3   C157.7,111.9,157.7,117.5,157.7,123.1C157.7,123.1,157.7,123.1,157.7,123.1z"/>
</g>
</svg>