<svg xmlns="http://www.w3.org/2000/svg" xmlns:xlink="http://www.w3.org/1999/xlink" version="1.1" id="Layer_1" x="0px" y="0px" style="enable-background:new 0 0 306.8 306.4;" xml:space="preserve" viewBox="94.9 90.12 117.2 126.88">
<g>
	<path d="M212.1,141.5c0-5.4-2.6-9.5-6.6-12.8c-1.2-1-2.6-0.9-3.5,0.2c-0.9,1.1-0.7,2.5,0.5,3.6c0.7,0.7,1.4,1.4,2.2,2.1   c0.4,0.4,0.3,0.6-0.1,1c-1.5,1.3-3,2.5-4.7,4c0-0.8,0-1.3,0-1.8c0-6.1,0-12.1,0-18.2c0-7.1-5.4-12.4-12.5-12.4   c-22.6,0-45.3,0-67.9,0c-7,0-12.4,5.4-12.4,12.3c0,5.4,0,10.9,0,16.3c0,0.2,0,0.3,0,0.5c0.1,1.6,1,2.6,2.4,2.6   c1.4,0,2.5-1.1,2.5-2.7c0-5.4,0-10.8,0-16.2c0-5,3-8,8-8c22.4,0,44.8,0,67.1,0c4.8,0,7.9,3.1,7.9,7.9c0,6.1,0,12.1,0,18.2   c0,2.2,0.4,2.8,2.7,3.4c-14.6,12.6-29,25-43.3,37.4c-0.9,0.8-1.3,0.3-1.9-0.2c-10.8-9.3-21.6-18.7-32.4-28   c-5.7-4.9-11.3-9.8-17-14.6c-0.7-0.6-0.9-1.1-0.2-1.8c0.8-0.7,1.5-1.5,2.3-2.3c0.9-1,1-2.3,0.1-3.3c-0.9-1-2.3-1.2-3.3-0.3   c-4,3.5-7.1,7.5-7.1,13.1c0,21.1,0,42.1,0,63.2c0,6.9,5.4,12.3,12.3,12.3c30.9,0,61.7,0,92.6,0c6.9,0,12.3-5.4,12.3-12.3   C212.1,183.7,212.1,162.6,212.1,141.5z M206.9,206.8c-0.5,1.6-0.5,1.6-1.8,0.6c-6.9-5.1-13.8-10.3-20.6-15.4   c-4.7-3.5-9.4-7.1-14.2-10.6c-0.6-0.4-1.1-0.9-1.9-1c-1.2-0.1-2.1,0.4-2.6,1.5c-0.5,1.2-0.1,2.2,0.9,3c2.8,2.1,5.5,4.1,8.3,6.2   c8.8,6.5,17.5,13.1,26.3,19.6c0.3,0.2,0.6,0.5,1.1,0.9c-2,0.7-89.9,1-96.3,0.4c0.5-0.4,0.9-0.8,1.3-1.1c10.7-8.5,21.3-16.9,32-25.4   c0.4-0.3,0.9-0.7,1.2-1.1c0.8-1,0.8-2.1,0-3.1c-0.8-1-1.9-1.2-3-0.6c-0.4,0.2-0.7,0.5-1.1,0.8c-11.3,9-22.7,18-34,27.1   c-1.2,0.9-1.5,0.6-2-0.5c-0.5-1.1-0.8-2.2-0.8-3.4c0-21.1,0-42.1,0-63.2c0-0.4,0.1-0.9,0.1-1.5c0.8,0.1,1.2,0.7,1.6,1.1   c16.6,14.3,33.1,28.6,49.6,42.9c2,1.7,2.7,1.7,4.7,0c16.5-14.2,32.9-28.4,49.4-42.7c0.5-0.5,1.1-0.9,1.9-1.6v2.1   c0,20.9,0,41.7,0,62.6C207.2,205.2,207.2,206,206.9,206.8z"/>
	<path d="M137.8,106.1c1.1,0.7,2.1,0.4,3.1-0.3c3.9-3.1,7.8-6.2,11.7-9.3c0.7-0.5,1.1-0.6,1.8,0c1,1,2.2,1.8,3.3,2.7   c2.8,2.3,5.7,4.6,8.5,6.9c0.9,0.7,1.8,0.9,2.8,0.4c0.8-0.4,1.3-1.1,1.3-2.1c0.1-0.8-0.3-1.5-0.9-2c-4.7-3.9-9.5-7.7-14.2-11.6   c-1.1-0.9-2.2-0.9-3.3,0c-4.7,3.7-9.4,7.5-14.1,11.2c-0.5,0.4-1,0.9-1.1,1.6C136.6,104.7,136.9,105.5,137.8,106.1z"/>
</g>
</svg>