<svg version="1.2" xmlns="http://www.w3.org/2000/svg" viewBox="0 0 50 48" width="50" height="48">
	<style>
		.s0 { fill: #eb6e1c } 
	</style>
	<g id="Menu">
		<path d="m9.2 1c4.5 0 8.2 3.6 8.2 8.1 0 4.4-3.7 8.1-8.2 8.1-4.5 0-8.2-3.7-8.2-8.1 0-4.5 3.7-8.1 8.2-8.1z"/>
		<path d="m40.8 1c4.5 0 8.2 3.6 8.2 8.1 0 4.4-3.7 8.1-8.2 8.1-4.5 0-8.2-3.7-8.2-8.1 0-4.5 3.7-8.1 8.2-8.1z"/>
		<path d="m9.2 30.8c4.5 0 8.2 3.7 8.2 8.1 0 4.5-3.7 8.1-8.2 8.1-4.5 0-8.2-3.6-8.2-8.1 0-4.4 3.7-8.1 8.2-8.1z"/>
		<path d="m40.8 30.8c4.5 0 8.2 3.7 8.2 8.1 0 4.5-3.7 8.1-8.2 8.1-4.5 0-8.2-3.6-8.2-8.1 0-4.4 3.7-8.1 8.2-8.1z"/>
	</g>
</svg>