<svg xmlns="http://www.w3.org/2000/svg" xmlns:xlink="http://www.w3.org/1999/xlink" version="1.1" id="Layer_1" x="0px" y="0px" style="enable-background:new 0 0 306.78 306.35;" xml:space="preserve" viewBox="109.53 101.33 87.74 103.68">
<g>
	<path d="M197.24,183.91c-0.13-2.32-0.31-4.64-0.75-6.92c-1.71-8.98-5.81-16.69-12.29-23.12c-0.91-0.9-2.03-1.28-3.3-1.09   c-1.57,0.24-2.7,1.1-3.2,2.61c-0.56,1.69-0.1,3.15,1.16,4.42c6.27,6.38,9.57,14.08,10.39,22.97c0.27,2.97-0.74,5.04-3.1,6.68   c-2.2,1.52-4.57,2.68-7.07,3.58c-6.81,2.46-13.88,3.55-21.08,3.87c-10.32,0.46-20.48-0.4-30.29-3.88c-3.1-1.1-6.07-2.48-8.49-4.79   c-0.94-0.9-1.71-1.92-1.72-3.33c-0.01-1.71,0.13-3.4,0.39-5.09c1.17-7.69,4.47-14.33,9.89-19.94c1.81-1.87,1.83-4.26,0.16-5.88   c-1.65-1.6-4.1-1.47-5.86,0.35c-8.09,8.36-12.24,18.37-12.55,30c-0.09,3.38,1.08,6.24,3.33,8.7c3.01,3.3,6.84,5.34,10.93,6.93   c9.53,3.71,19.49,4.89,29.23,5.03c9.54-0.1,18.53-1.13,27.24-4.02c4.67-1.55,9.11-3.57,12.75-7.01   C195.9,191.26,197.47,187.97,197.24,183.91z"/>
	<path d="M153.43,157.15c15.36-0.02,27.84-12.5,27.87-27.86c0.02-15.42-12.47-27.95-27.89-27.96c-15.42-0.01-27.93,12.5-27.93,27.92   C125.48,144.66,138.01,157.17,153.43,157.15z M153.46,109.3c10.98,0.02,19.89,8.99,19.86,20.01c-0.02,10.98-9,19.89-20.01,19.86   c-10.98-0.02-19.88-8.99-19.86-20.01C133.47,118.18,142.44,109.28,153.46,109.3z"/>
</g>
</svg>