<svg xmlns="http://www.w3.org/2000/svg" xmlns:xlink="http://www.w3.org/1999/xlink" version="1.1" id="Layer_1" x="0px" y="0px" style="enable-background:new 0 0 306.8 306.4;" xml:space="preserve" viewBox="98.95 100.03 108.85 106.44">
<g>
	<path d="M205.4,197.8c0,2.9-2.2,6.2-5.7,7.8c-3.7,1.6-7.8,0.8-10.8-2.1c-5.2-5.2-10.4-10.4-15.6-15.5c-5.2-5.2-10.5-10.5-15.7-15.8   c-0.9-0.9-1.3-0.7-2,0.1c-10.3,10.4-20.6,20.8-30.9,31.1c-3.1,3.2-7.6,3.9-11.4,2.1c-5.9-2.9-7.2-10.7-2.5-15.4   c5.2-5.3,10.6-10.5,15.8-15.8c2.3-2.3,4.7-4.6,7-7c1.6-1.6,3.4-1.6,4.8-0.2c1.3,1.3,1.2,3.1-0.4,4.7c-7.5,7.5-15,15.1-22.5,22.6   c-1,1-1.4,2.2-1,3.5c0.4,1.2,1.3,1.9,2.5,2.1c1.2,0.2,2.2-0.3,3.1-1.2c2.8-2.8,5.6-5.7,8.5-8.5c8.2-8.2,16.5-16.5,24.7-24.7   c2.6-2.6,3.9-2.6,6.6,0c11.1,11,22.1,22,33.2,33c1.1,1.1,2.2,1.7,3.8,1.2c2-0.7,2.8-3,1.5-4.8c-0.3-0.5-0.8-0.9-1.2-1.3   c-6.4-6.4-12.7-12.8-19.1-19.1c-1-1-1.5-2.1-1-3.5c0.4-1.2,1.2-2,2.5-2.2c1.1-0.2,2,0.2,2.8,0.9c6.9,6.8,13.7,13.5,20.5,20.4   C204.7,191.9,205.4,194.2,205.4,197.8z"/>
	<path d="M207.8,119.6c-0.1,5.8-1.9,11-6,15.2c-9.6,9.8-19.3,19.4-29,29c-1.5,1.5-3.2,1.5-4.7,0c-5.3-5.2-10.6-10.3-15.9-15.5   c-1.3-1.3-1.4-2.9-0.2-4.3c2.1-2.6,2-4.4-0.4-6.7c-10.5-10.5-21-21-31.5-31.5c-1.6-1.6-1.8-3.4-0.4-4.8c1.1-1.1,2.7-1.3,4-0.4   c0.4,0.3,0.8,0.6,1.1,1c10.4,10.3,20.7,20.6,31.1,30.9c3.7,3.7,4.9,7.8,3,12.7c-0.2,0.4-0.2,0.7,0.2,1.1c3.7,3.6,7.3,7.1,11,10.7   c0.6,0.6,0.9,0.1,1.3-0.3c3-3,6.1-6.1,9.1-9.2c5.4-5.4,10.7-10.7,16.1-16.1c5.2-5.3,6.4-12.8,3.1-19.1c-0.7-1.4-0.7-1.4-1.8-0.3   c-8.5,8.5-17,17-25.4,25.4c-1.5,1.5-3.1,1.7-4.5,0.6c-1.4-1.1-1.7-2.8-0.7-4.3c0.2-0.4,0.6-0.7,0.9-1c9.4-9.4,18.7-18.9,28.1-28.3   c2.2-2.3,4-2.2,6.1,0.1C205.8,108.9,207.6,113.9,207.8,119.6z"/>
	<path d="M139.9,160.6c-2.8,0-5.4-1-7.5-3.1c-10.8-10.8-21.5-21.5-32.3-32.3c-1.5-1.5-1.5-3.2-0.2-4.6c1.3-1.4,3.2-1.3,4.7,0.2   c7.8,7.8,15.6,15.5,23.4,23.3c2.8,2.8,5.6,5.6,8.4,8.4c2.2,2.1,4.4,2.3,6.7,0.4c1.4-1.2,3.2-1.1,4.4,0.2c1.2,1.3,1.2,3.1-0.2,4.4   C145.4,159.6,142.9,160.5,139.9,160.6z"/>
	<path d="M136.6,141.1c-0.7,0-1.4-0.4-2.1-1.1c-8.2-8.2-16.4-16.4-24.6-24.6c-1.5-1.5-1.4-3.3-0.1-4.6c1.4-1.3,3.1-1.3,4.6,0.1   c8.2,8.1,16.3,16.3,24.5,24.5c1.2,1.2,1.5,2.5,0.9,3.7C139.2,140.4,138.2,141,136.6,141.1z"/>
</g>
</svg>