<svg xmlns="http://www.w3.org/2000/svg" xmlns:xlink="http://www.w3.org/1999/xlink" version="1.1" id="Layer_1" x="0px" y="0px" style="enable-background:new 0 0 306.8 306.4;" xml:space="preserve" viewBox="78.3 78.3 150.4 150.4">
<g>
	<path d="M153.7,78.3c-41.6,0-75.4,33.6-75.4,74.9c0,41.7,33.5,75.5,75.1,75.5c41.4,0,75.2-33.6,75.3-74.9   C228.7,112.1,195.2,78.4,153.7,78.3z M153.5,222.7c-38.1,0-69.1-31-69.1-69.2c0-38.1,31.1-69.1,69.2-69.1   c38.1,0,69.1,31.1,69.1,69.3C222.6,191.7,191.6,222.7,153.5,222.7z"/>
	<path d="M193.4,125.1c-0.9-1.1-1.4-0.9-2.3,0c-16,16-32,32-48,48.1c-1.1,1.1-1.6,1.2-2.7,0.1c-4.9-5-9.9-9.9-14.8-14.9   c-3.3-3.3-6.6-6.6-9.9-9.9c-0.7-0.7-1.1-0.7-1.8,0.2c-0.6,0.8-1.3,1.5-2.1,2.1c-1.1,0.8-1.1,1.2-0.3,2.1   c9.8,9.7,19.5,19.5,29.2,29.2c0.9,0.9,1.3,0.8,2.1,0c8.5-8.6,17.1-17.2,25.7-25.7c9-9,18-18,27-27c0.1-0.1,0.2-0.2,0.3-0.3   c0.4-0.4,0.4-1,0-1.4c0,0,0,0,0,0C195,126.7,194.1,126,193.4,125.1z"/>
</g>
</svg>