<svg xmlns="http://www.w3.org/2000/svg" xmlns:xlink="http://www.w3.org/1999/xlink" version="1.1" id="Layer_1" x="0px" y="0px" style="enable-background:new 0 0 306.8 306.4;" xml:space="preserve" viewBox="78.2 78 150.4 150.4">
<g>
	<g>
		<path d="M181.7,173c-0.1-1.5-0.2-3-0.5-4.5c-1.1-5.8-3.7-10.8-7.9-14.9c-0.6-0.6-1.3-0.8-2.1-0.7c-1,0.2-1.7,0.7-2.1,1.7    c-0.4,1.1-0.1,2,0.7,2.9c4,4.1,6.2,9.1,6.7,14.8c0.2,1.9-0.5,3.2-2,4.3c-1.4,1-2.9,1.7-4.6,2.3c-4.4,1.6-8.9,2.3-13.6,2.5    c-6.6,0.3-13.2-0.3-19.5-2.5c-2-0.7-3.9-1.6-5.5-3.1c-0.6-0.6-1.1-1.2-1.1-2.1c0-1.1,0.1-2.2,0.3-3.3c0.8-5,2.9-9.2,6.4-12.8    c1.2-1.2,1.2-2.7,0.1-3.8c-1.1-1-2.6-0.9-3.8,0.2c-5.2,5.4-7.9,11.8-8.1,19.3c-0.1,2.2,0.7,4,2.1,5.6c1.9,2.1,4.4,3.4,7,4.5    c6.1,2.4,12.6,3.2,18.8,3.2c6.1-0.1,11.9-0.7,17.6-2.6c3-1,5.9-2.3,8.2-4.5C180.8,177.7,181.8,175.6,181.7,173z"/>
		<path d="M153.4,155.8c9.9,0,17.9-8.1,18-18c0-9.9-8-18-18-18c-9.9,0-18,8.1-18,18C135.4,147.7,143.5,155.8,153.4,155.8z     M153.4,124.9c7.1,0,12.8,5.8,12.8,12.9c0,7.1-5.8,12.8-12.9,12.8c-7.1,0-12.8-5.8-12.8-12.9C140.6,130.6,146.3,124.9,153.4,124.9    z"/>
	</g>
	<g>
		<path d="M153.6,78c-41.6,0-75.4,33.6-75.4,74.9c0,41.7,33.5,75.5,75.1,75.5c41.4,0,75.2-33.6,75.3-74.9    C228.6,111.8,195.1,78,153.6,78z M153.4,222.4c-38.1,0-69.1-31-69.1-69.2c0-38.1,31.1-69.1,69.2-69.1c38.1,0,69.1,31.1,69.1,69.3    C222.5,191.4,191.5,222.4,153.4,222.4z"/>
	</g>
</g>
</svg>